<svg xmlns="http://www.w3.org/2000/svg" viewBox="0 0 944 1022" fill="currentColor">
<g transform="translate(0.000000,1022.000000) scale(0.100000,-0.100000)"
fill="currentColor" stroke="none">

<path d="M3973 9467 c-9 -11 -26 -130 -39 -279 -3 -38 -9 -68 -13 -68 -4 0
-43 39 -87 86 -114 124 -194 204 -204 204 -21 0 -24 -227 -5 -347 7 -40 4 -46
-48 -115 -62 -84 -135 -154 -175 -169 -32 -13 -155 -13 -214 0 -23 6 -44 8
-46 6 -8 -8 30 -63 70 -102 49 -47 147 -103 182 -103 37 0 86 -12 86 -20 0 -5
-16 -18 -36 -31 -41 -25 -84 -69 -84 -85 0 -6 -11 -33 -25 -60 -14 -27 -25
-52 -25 -56 0 -15 -112 -168 -215 -293 -18 -22 -64 -78 -101 -125 -37 -47
-110 -130 -162 -185 -91 -97 -132 -162 -132 -210 0 -13 9 -45 21 -72 22 -52
36 -106 49 -196 11 -82 44 -114 151 -151 24 -9 50 -16 57 -16 7 0 32 -9 55
-19 69 -32 153 -42 241 -31 44 5 90 17 103 25 28 19 83 92 83 111 0 8 15 37
34 66 39 61 88 93 309 202 125 62 142 68 175 60 21 -5 80 -8 132 -9 l95 0 -3
-35 c-5 -51 -38 -146 -69 -199 -39 -68 -117 -158 -282 -326 -81 -82 -176 -186
-211 -230 -60 -74 -140 -196 -140 -211 0 -10 -55 -59 -135 -119 -85 -64 -171
-151 -224 -227 -48 -70 -121 -204 -121 -223 0 -26 -25 -20 -110 26 -8 4 -42
22 -75 40 -33 17 -73 41 -90 52 -73 50 -85 57 -91 57 -3 0 -26 14 -51 30 -24
17 -48 30 -54 30 -5 0 -9 5 -9 10 0 6 -6 10 -13 10 -8 0 -24 11 -37 25 -13 14
-29 25 -35 25 -7 0 -20 9 -30 20 -10 11 -26 20 -35 20 -9 0 -22 6 -29 13 -8 8
-48 12 -129 11 -110 -1 -122 -3 -197 -35 -82 -35 -151 -93 -182 -154 -9 -16
-32 -50 -52 -74 -20 -25 -38 -50 -41 -57 -6 -14 -100 -113 -387 -405 -226
-230 -233 -241 -233 -387 -1 -69 -5 -103 -15 -116 -8 -11 -15 -39 -15 -62 0
-24 -4 -46 -10 -49 -5 -3 -10 -21 -10 -39 0 -19 -8 -51 -17 -72 -14 -33 -17
-68 -15 -214 2 -96 7 -179 12 -184 6 -6 10 -25 10 -43 0 -18 7 -51 17 -74 l16
-41 61 4 c82 7 194 74 296 178 133 135 161 221 107 333 -16 32 -35 61 -43 64
-7 3 -14 15 -14 27 0 11 -7 30 -15 40 -8 11 -15 32 -15 48 0 23 8 31 43 49 49
25 97 67 97 86 0 7 4 13 10 13 5 0 12 17 15 38 4 20 9 44 12 52 4 8 12 34 18
56 27 100 232 329 386 432 63 43 65 44 136 40 88 -4 104 -16 250 -179 102
-113 113 -140 43 -106 -16 8 -63 23 -104 33 -136 32 -219 -3 -377 -157 -75
-74 -84 -95 -99 -259 -5 -58 -16 -139 -25 -180 -38 -181 -44 -209 -63 -280
-10 -41 -26 -100 -35 -130 -9 -30 -23 -84 -32 -120 -10 -36 -21 -75 -26 -88
-5 -13 -9 -50 -9 -83 0 -47 7 -74 31 -122 39 -80 52 -103 72 -124 14 -17 61
-112 101 -208 9 -22 21 -47 26 -55 6 -8 15 -26 21 -40 5 -14 22 -38 37 -53
l27 -28 -25 -19 c-14 -11 -31 -20 -37 -20 -23 0 -13 -26 23 -61 57 -54 184
-208 184 -223 0 -7 10 -21 21 -32 12 -10 25 -28 30 -39 5 -11 13 -27 18 -35 6
-8 22 -42 37 -75 23 -51 25 -63 15 -90 -41 -115 8 -245 101 -264 28 -6 38 -17
70 -76 21 -39 41 -77 44 -85 12 -30 37 -85 46 -100 4 -8 11 -22 14 -30 3 -8
12 -28 19 -45 8 -16 23 -52 35 -78 l21 -48 -23 -32 c-27 -38 -29 -127 -4 -153
9 -8 16 -19 16 -24 0 -5 18 -21 39 -37 63 -45 66 -60 26 -147 -52 -111 -51
-115 19 -151 65 -33 77 -52 78 -126 1 -32 -6 -58 -22 -83 -47 -77 -1 -187 100
-238 30 -15 62 -28 70 -28 9 0 20 -4 25 -9 6 -4 44 -16 85 -26 41 -10 82 -20
90 -23 16 -6 101 -21 260 -48 184 -30 216 -34 340 -44 69 -6 145 -15 170 -21
68 -16 1163 -24 1380 -10 218 14 415 30 455 37 17 3 62 9 100 14 142 19 220
32 237 41 10 5 30 9 45 9 46 0 248 47 317 74 75 29 132 64 157 96 38 47 45
119 18 172 -11 22 -22 62 -25 90 -4 45 -2 54 22 80 15 15 34 28 41 28 8 0 27
7 43 15 35 18 39 53 14 112 -9 21 -20 47 -24 58 -4 11 -13 33 -19 48 -10 24
-8 31 12 51 12 12 30 27 39 32 8 5 27 27 42 48 31 46 37 134 11 156 -11 9 -14
23 -10 44 6 31 39 118 56 146 5 8 12 22 15 30 3 8 13 33 21 55 9 22 29 67 46
100 17 33 35 70 41 82 6 13 24 28 40 35 43 17 94 65 112 104 19 40 21 117 4
168 -10 31 -9 42 4 70 9 19 16 36 16 39 0 10 103 172 141 222 21 28 70 84 109
125 39 41 68 80 66 87 -6 14 -26 24 -92 43 -80 24 -258 0 -340 -46 -24 -13
-47 -24 -52 -24 -4 0 -13 69 -19 154 -7 89 -17 163 -24 175 -7 11 -11 22 -8
25 2 2 40 0 84 -6 149 -19 352 1 437 43 10 5 22 9 28 9 22 0 191 103 238 145
49 44 163 200 181 248 5 14 14 28 20 31 14 9 48 125 67 232 24 132 10 328 -33
469 -26 87 -63 195 -72 213 -5 9 -19 59 -31 110 -26 107 -24 235 4 290 9 17
16 38 16 47 0 26 88 142 126 165 18 12 34 26 34 31 0 12 -47 12 -55 -1 -3 -5
-18 -10 -32 -10 -14 0 -55 -14 -92 -32 -114 -56 -206 -168 -242 -295 -10 -34
-15 -41 -26 -32 -7 6 -13 23 -13 38 0 15 -5 32 -11 38 -6 6 -13 70 -16 144 -5
118 -3 143 16 205 56 189 240 351 441 390 136 26 292 10 393 -41 37 -18 37
-18 37 -2 0 22 -105 131 -205 215 -116 96 -257 168 -390 199 -47 10 -283 6
-335 -6 -101 -24 -165 -44 -185 -58 -11 -7 -25 -13 -32 -13 -12 0 -322 -185
-333 -199 -3 -3 -18 -13 -34 -21 -16 -8 -58 -46 -93 -85 -71 -75 -142 -207
-163 -300 -7 -27 -16 -64 -21 -81 -14 -47 -11 -242 6 -314 25 -112 37 -154 51
-171 8 -8 14 -21 14 -27 0 -32 118 -230 211 -354 77 -103 159 -223 159 -234 0
-5 11 -31 25 -57 35 -65 47 -123 52 -249 4 -102 3 -108 -26 -165 -54 -106
-149 -178 -272 -204 -60 -13 -43 -26 -149 115 -67 88 -124 145 -220 220 -80
63 -187 136 -199 136 -8 0 -292 150 -369 196 -142 82 -368 295 -431 404 -67
115 -107 214 -123 300 -38 213 -47 310 -28 310 6 0 27 -17 48 -37 20 -21 66
-62 102 -92 82 -68 114 -103 155 -166 34 -53 75 -137 75 -154 0 -23 52 -121
64 -121 16 0 32 54 41 135 4 33 20 98 35 145 81 246 95 332 80 489 -6 58 -15
120 -20 136 -4 17 -13 53 -20 80 -6 28 -18 63 -26 79 -17 35 -17 36 -1 36 30
-1 131 -118 165 -193 11 -23 27 -77 37 -119 14 -65 15 -89 6 -159 -6 -45 -17
-95 -25 -110 -44 -87 81 36 169 166 57 86 102 186 112 250 3 22 10 48 15 58
16 31 22 247 8 308 -6 29 -15 77 -20 104 -14 90 -98 288 -141 334 -10 11 -19
23 -19 27 0 4 -16 26 -35 50 -19 23 -31 45 -26 49 13 8 100 -37 178 -92 107
-75 199 -211 218 -322 4 -23 11 -43 16 -47 5 -3 9 -40 9 -82 0 -68 2 -75 15
-61 17 17 73 168 79 214 2 17 9 46 15 65 16 52 14 253 -4 329 -18 75 -45 169
-55 191 -57 125 -146 252 -215 307 -18 15 -31 31 -29 35 3 4 42 8 88 8 91 0
218 29 326 75 105 44 118 65 43 65 -46 1 -69 5 -177 31 -89 21 -208 104 -286
201 -164 202 -208 256 -242 291 -35 36 -35 47 -1 47 121 0 298 129 363 264 16
35 30 67 30 70 0 13 -20 5 -66 -27 -112 -77 -278 -77 -429 -1 -72 37 -95 50
-108 63 -6 6 -19 11 -29 11 -9 0 -21 6 -25 14 -13 23 -172 108 -228 122 -34 8
-27 26 16 37 41 11 114 63 162 117 40 43 92 138 82 148 -3 4 -21 -2 -38 -12
-33 -19 -82 -36 -177 -62 -46 -13 -66 -13 -120 -3 -36 6 -79 18 -97 25 -17 8
-37 14 -45 14 -12 0 -169 53 -231 79 -16 6 -37 11 -49 11 -11 0 -34 6 -51 14
-51 23 -159 56 -182 56 -12 0 -26 5 -33 12 -16 16 -215 23 -282 9 -31 -6 -68
-18 -84 -26 -15 -8 -34 -15 -42 -15 -22 0 -89 -38 -114 -65 -13 -14 -27 -25
-31 -25 -4 0 -42 36 -85 81 -129 132 -210 201 -221 186z m169 -288 c40 -44 76
-88 79 -97 4 -10 14 -24 23 -31 9 -7 31 -43 49 -80 26 -51 36 -88 45 -163 14
-113 19 -130 40 -126 19 4 40 61 41 111 l1 38 48 -6 c42 -6 97 -22 157 -45 92
-36 117 -46 170 -73 163 -82 360 -248 464 -390 53 -73 146 -253 167 -326 9
-31 20 -61 25 -67 5 -6 12 -33 15 -60 4 -27 11 -57 16 -66 14 -28 38 -283 37
-398 -1 -139 -23 -331 -53 -450 -9 -36 -21 -85 -26 -110 -6 -25 -14 -54 -19
-65 -4 -11 -16 -47 -27 -80 -10 -33 -21 -67 -25 -75 -13 -27 -39 -118 -39
-137 0 -11 -4 -23 -9 -29 -10 -11 -51 -141 -51 -164 0 -9 -4 -20 -9 -26 -5 -5
-16 -65 -26 -134 -29 -217 -10 -605 33 -687 7 -12 12 -31 12 -42 0 -12 4 -29
9 -39 5 -9 17 -35 26 -57 30 -73 68 -145 82 -156 7 -7 13 -15 13 -20 0 -29
169 -214 259 -283 81 -63 232 -165 271 -185 420 -211 575 -327 715 -536 61
-91 73 -114 119 -218 40 -89 77 -261 91 -423 6 -71 4 -86 -14 -123 -12 -22
-25 -41 -29 -41 -4 0 -32 24 -61 54 -30 30 -62 57 -73 59 -31 8 -73 -41 -106
-124 -9 -23 -18 -27 -69 -34 -80 -9 -136 -43 -163 -101 -21 -42 -21 -49 -10
-87 8 -23 27 -68 42 -100 29 -58 31 -103 7 -133 -5 -6 -10 -35 -11 -64 -3 -51
-2 -53 27 -61 20 -6 36 -4 50 5 48 31 185 48 185 23 0 -31 -54 -88 -118 -124
-65 -36 -70 -37 -167 -38 -90 0 -106 3 -158 29 -32 16 -71 44 -86 63 -29 35
-87 141 -80 147 2 1 30 11 62 20 87 27 147 109 147 203 0 50 -34 116 -73 143
l-35 24 1 86 c1 47 -4 105 -11 130 -15 53 -58 133 -83 156 -16 15 -21 14 -70
-13 -95 -51 -163 -135 -193 -235 l-16 -57 -48 -7 c-65 -9 -136 -80 -146 -145
-13 -86 30 -170 111 -218 16 -10 12 -16 -40 -66 -121 -113 -261 -144 -427 -93
-110 34 -226 149 -264 263 -20 58 -12 70 43 60 39 -6 98 -45 193 -126 42 -36
61 -33 98 13 18 24 25 46 28 94 4 63 4 63 57 103 52 40 112 105 134 148 21 41
-46 151 -131 217 -35 26 -36 28 -35 94 1 49 -4 76 -18 99 -26 44 -40 47 -83
18 -49 -32 -161 -79 -169 -71 -3 3 0 14 9 23 27 32 48 108 48 173 0 56 -3 67
-27 92 -24 25 -34 28 -89 28 l-62 0 -28 55 c-49 96 -170 245 -200 245 -28 0
-157 -155 -214 -257 l-24 -43 -61 0 c-53 0 -65 -3 -86 -26 -22 -23 -24 -34
-23 -112 0 -61 6 -96 17 -117 19 -35 22 -55 6 -55 -10 0 -249 157 -384 253
-83 58 -285 256 -359 351 -107 138 -107 135 -25 108 46 -16 70 -35 169 -136
141 -145 379 -340 395 -324 3 3 -54 61 -127 129 -167 157 -297 294 -287 303 2
2 23 6 47 10 l43 6 97 -92 c92 -89 176 -165 236 -216 55 -47 38 -10 -25 56
-36 37 -93 96 -126 132 -135 145 -144 161 -98 182 14 6 25 15 25 20 0 6 35
-28 78 -73 110 -118 190 -199 196 -199 14 0 4 19 -30 56 -20 21 -74 85 -121
142 -70 86 -82 105 -73 121 5 11 13 21 17 23 5 1 25 24 46 51 29 36 45 47 67
47 37 0 122 26 190 58 77 37 208 169 244 247 16 32 32 72 37 87 14 49 -6 38
-36 -19 -39 -75 -142 -178 -247 -246 -48 -31 -91 -57 -95 -57 -5 0 -25 -11
-46 -25 -46 -32 -65 -24 -37 13 56 73 160 224 160 233 0 16 -23 -1 -122 -92
-95 -88 -131 -124 -253 -249 -38 -40 -82 -78 -97 -86 -50 -26 -162 -15 -253
25 -11 5 -29 12 -40 14 -25 7 -81 26 -122 44 -17 7 -38 13 -46 13 -9 0 -28 6
-44 14 -15 8 -48 23 -72 33 -122 51 -300 150 -435 243 -101 69 -172 111 -233
139 -63 28 -81 32 -133 28 -101 -7 -183 -83 -232 -217 -81 -218 -107 -502 -52
-558 20 -19 14 -94 -12 -143 -37 -73 5 -178 78 -194 25 -6 29 -10 24 -31 -4
-14 -24 -54 -46 -89 -22 -36 -40 -68 -40 -71 0 -2 -8 -14 -18 -25 -18 -18 -19
-18 -34 -2 -9 10 -41 72 -72 138 -32 66 -79 154 -106 195 -69 108 -71 131 -25
295 32 115 124 490 130 530 3 22 10 58 15 80 5 22 11 79 14 126 2 48 10 97 16
110 18 34 159 166 199 185 41 20 103 15 211 -16 41 -12 86 -24 100 -27 14 -2
34 -8 45 -13 27 -11 220 -47 325 -60 47 -6 119 -15 160 -21 41 -5 116 -14 165
-19 175 -19 246 -41 321 -96 40 -29 48 -21 24 25 -29 59 -98 115 -179 146
l-73 29 5 95 c8 146 22 206 69 300 61 121 172 235 299 306 83 46 185 93 230
105 24 7 53 16 64 20 34 14 186 48 272 61 45 7 79 17 76 22 -13 21 -353 -12
-453 -45 -64 -20 -145 -52 -155 -60 -5 -4 -15 -8 -22 -8 -27 0 -166 -94 -238
-162 -162 -151 -235 -319 -235 -540 l0 -89 -37 7 c-21 4 -39 7 -39 8 -11 8
-13 140 -4 219 11 95 68 297 91 322 5 5 9 15 9 23 0 52 -82 -99 -113 -209 -31
-109 -36 -136 -43 -237 -4 -56 -10 -105 -14 -107 -3 -2 -16 -1 -28 2 -21 5
-22 11 -22 122 0 118 20 288 41 351 39 121 142 278 247 378 41 40 79 69 83 65
4 -5 -1 -42 -11 -83 -20 -79 -35 -180 -28 -180 3 0 20 35 38 78 48 115 150
319 166 333 8 6 14 17 14 23 0 18 95 156 157 227 32 36 125 136 207 222 81 85
171 186 198 224 72 98 124 216 144 326 4 26 11 37 24 37 31 0 111 52 167 108
51 50 113 135 113 154 0 18 -17 6 -34 -23 -51 -87 -237 -245 -260 -221 -16 15
-1 33 51 62 32 18 80 56 108 84 50 53 125 187 125 226 0 11 5 20 10 20 6 0 10
-12 10 -28 0 -15 4 -42 10 -61 5 -18 10 -90 11 -160 1 -123 -9 -187 -41 -266
-7 -16 -16 -39 -21 -50 -70 -175 -172 -317 -378 -529 -157 -161 -281 -304
-337 -387 -40 -60 -38 -77 3 -28 72 86 144 161 353 369 235 234 285 297 365
454 57 115 81 184 105 304 13 69 13 276 -1 344 -33 168 -84 332 -127 408 -33
60 -71 110 -83 110 -11 0 -2 -44 17 -80 7 -14 17 -52 22 -85 9 -67 -2 -271
-16 -288 -5 -7 -12 -25 -16 -41 -7 -29 -59 -113 -93 -151 -24 -27 -92 -78
-123 -92 -155 -71 -372 -41 -495 70 -42 38 -53 35 -37 -12 10 -29 10 -29 -74
-71 -46 -23 -84 -46 -84 -51 0 -14 16 -11 56 14 21 12 58 29 83 37 42 14 49
14 84 -3 21 -10 37 -23 35 -29 -5 -14 -85 -57 -151 -82 -26 -10 -53 -24 -61
-31 -7 -8 -24 -17 -38 -20 -44 -11 -159 -106 -194 -161 -19 -29 -34 -57 -34
-62 0 -5 -14 -28 -30 -50 l-30 -42 -80 0 c-44 0 -80 3 -80 6 0 16 61 81 136
145 66 57 81 75 72 86 -15 18 -73 7 -119 -22 -20 -13 -58 -46 -85 -75 -85 -89
-144 -111 -209 -76 -16 9 -34 16 -39 16 -18 0 -35 36 -36 75 0 23 -9 66 -20
97 -33 95 -35 129 -9 172 12 21 50 68 85 105 34 36 95 107 135 156 40 50 110
135 156 190 46 55 87 105 91 110 4 6 22 29 40 51 17 23 32 45 32 49 0 4 9 18
19 31 11 14 23 44 26 67 6 36 20 54 99 130 81 79 210 177 233 177 11 0 107 66
178 122 33 27 65 48 72 48 7 0 26 -13 43 -30 34 -34 62 -50 84 -50 13 0 12 6
-5 38 -12 20 -27 44 -34 52 -23 29 -45 119 -51 217 -7 105 2 233 16 233 5 0
42 -36 82 -81z m624 36 c-11 -8 -26 -15 -34 -15 -20 0 -121 -49 -162 -79 -42
-30 -95 -84 -130 -130 l-26 -34 -37 71 c-20 40 -37 77 -37 85 0 26 73 68 170
96 85 25 287 29 256 6z m-1014 -66 c21 -23 37 -43 36 -43 -2 -1 -16 -7 -31
-14 -27 -11 -29 -10 -43 23 -15 37 -19 75 -7 75 4 0 25 -19 45 -41z m1343 -16
c11 -6 49 -19 85 -29 36 -10 70 -21 75 -24 28 -19 210 -61 272 -63 54 -1 67
-4 54 -13 -29 -19 -98 -34 -203 -44 -199 -19 -316 -39 -435 -74 -160 -48 -150
-47 -220 -24 -35 12 -62 25 -61 30 3 9 91 57 138 76 14 5 39 15 55 22 31 13
95 25 203 39 63 9 92 20 56 22 -10 1 -28 3 -40 4 -47 5 -243 -16 -294 -31 -58
-18 -138 -55 -180 -84 -20 -13 -37 -15 -80 -10 l-55 6 52 50 c29 27 71 60 94
72 22 12 53 29 68 37 41 22 94 43 121 49 46 8 275 0 295 -11z m-1172 -133 c9
0 17 -5 17 -10 0 -6 -8 -13 -17 -17 -65 -21 -124 -56 -161 -94 -50 -52 -105
-133 -93 -137 5 -2 37 27 72 63 41 43 85 76 126 96 60 30 99 33 91 6 -7 -21
-147 -123 -216 -157 -37 -18 -78 -38 -92 -45 -56 -28 -212 -47 -224 -26 -3 5
7 11 22 15 42 9 118 71 165 134 95 128 180 187 257 177 19 -3 43 -5 53 -5z
m1552 -179 c99 -32 167 -66 354 -179 147 -88 188 -104 301 -111 l85 -6 -38
-22 c-29 -18 -60 -24 -135 -29 -95 -6 -122 -3 -257 30 -314 76 -360 84 -511
85 l-110 1 -57 43 c-31 23 -56 45 -57 48 0 7 55 16 169 27 82 9 184 -3 304
-33 44 -12 31 10 -15 23 -121 36 -158 44 -222 51 -39 4 -129 4 -201 -1 -122
-7 -132 -7 -157 12 -15 11 -32 20 -38 20 -19 0 -10 15 18 27 88 38 206 53 362
47 92 -3 133 -9 205 -33z m-53 -311 c24 -5 79 -17 123 -26 44 -10 85 -20 90
-24 6 -4 27 -11 49 -14 21 -4 46 -11 55 -16 9 -5 30 -14 48 -20 108 -40 229
-153 378 -355 75 -101 266 -275 302 -275 5 0 18 -7 29 -15 17 -14 11 -15 -71
-9 -213 15 -297 50 -555 234 -264 188 -280 200 -286 200 -3 0 -20 11 -38 25
-18 14 -36 25 -40 25 -4 0 -22 11 -40 25 -18 14 -37 25 -43 25 -10 0 -63 52
-63 63 0 13 40 7 133 -18 220 -61 326 -122 547 -318 67 -59 125 -105 130 -102
16 10 -230 254 -315 314 -141 99 -304 164 -500 197 -40 7 -128 71 -118 87 6
10 135 9 185 -3z m58 -315 c7 -8 17 -15 22 -15 6 0 24 -11 42 -26 17 -14 65
-50 106 -81 41 -31 109 -86 150 -123 41 -36 118 -101 170 -142 52 -42 118 -97
146 -122 28 -25 56 -46 63 -46 6 0 63 -51 125 -114 79 -79 116 -123 121 -145
3 -17 10 -31 14 -31 10 0 71 -152 71 -178 0 -11 4 -23 9 -26 4 -3 11 -39 14
-81 4 -41 10 -93 13 -115 6 -35 4 -39 -10 -34 -9 3 -16 12 -16 20 0 23 -139
162 -199 198 -96 58 -124 72 -189 94 -34 12 -70 26 -80 32 -9 5 -39 19 -67 31
-63 27 -155 92 -222 159 -51 49 -141 185 -131 196 3 3 34 -25 69 -62 88 -92
116 -110 364 -239 55 -28 110 -58 122 -65 12 -8 25 -11 29 -7 9 9 16 4 -101
72 -200 117 -261 156 -316 202 -66 57 -154 163 -190 230 -25 46 -41 93 -33 93
2 0 50 -46 107 -103 56 -56 128 -120 161 -142 96 -66 190 -124 200 -125 5 0
24 -11 42 -25 18 -14 35 -25 38 -25 18 0 162 -118 219 -180 37 -40 67 -69 67
-65 0 19 -68 115 -119 169 -31 32 -110 93 -176 137 -365 239 -509 381 -644
633 -17 32 -31 60 -31 62 0 10 29 2 40 -11z m168 -805 c46 -153 106 -248 281
-441 51 -57 116 -138 144 -179 30 -45 47 -65 43 -49 -10 46 -92 181 -153 254
-72 85 -173 220 -173 230 0 4 -18 43 -40 87 -41 81 -45 114 -8 68 51 -65 99
-120 172 -194 169 -174 262 -331 312 -531 26 -101 25 -324 -1 -422 -10 -40
-22 -73 -27 -73 -4 0 -8 29 -8 66 0 182 -54 287 -264 514 -110 119 -158 184
-204 276 -40 79 -48 102 -77 204 -16 59 -35 220 -27 233 7 13 19 -4 30 -43z
m-28 -275 c0 -27 73 -183 116 -250 40 -60 59 -82 172 -199 131 -136 206 -249
236 -355 21 -71 32 -211 18 -211 -6 0 -14 15 -17 33 -22 101 -105 216 -224
312 -98 78 -122 103 -173 180 -61 94 -92 156 -116 240 -25 82 -42 282 -24 271
7 -4 12 -14 12 -21z m-50 -308 c1 -37 36 -130 82 -218 44 -83 94 -211 109
-279 4 -19 15 -62 24 -95 42 -151 51 -253 35 -380 -7 -55 -19 -112 -27 -127
-7 -15 -13 -38 -13 -52 0 -14 -4 -28 -10 -31 -5 -3 -10 -17 -10 -31 0 -33 -22
-30 -38 5 -13 28 -76 92 -210 210 -40 34 -90 86 -110 115 -54 72 -77 188 -53
262 6 16 15 55 21 87 6 31 15 55 19 52 5 -2 11 -33 14 -67 9 -92 63 -215 142
-323 25 -33 48 -67 52 -75 3 -8 9 -17 12 -20 8 -7 26 -37 52 -87 21 -39 39
-56 39 -34 0 35 -33 107 -99 216 -72 121 -103 178 -132 250 -22 54 -24 73 -23
195 2 137 10 190 32 198 8 2 12 -12 12 -47 0 -27 4 -60 9 -73 5 -13 17 -48 26
-78 20 -67 62 -155 81 -171 8 -6 14 -17 14 -25 0 -13 21 -68 42 -108 15 -29
38 -124 38 -156 0 -17 5 -30 11 -30 26 0 -9 220 -48 302 -71 152 -67 141 -96
228 -35 100 -48 339 -22 402 9 23 25 13 25 -15z m2173 -234 c37 -3 67 -9 67
-13 0 -4 -33 -10 -73 -13 -231 -20 -477 -181 -590 -387 -63 -114 -80 -187 -80
-335 0 -116 16 -240 32 -250 3 -2 6 79 6 178 1 167 3 186 23 229 12 26 22 53
22 60 0 24 58 126 105 188 80 104 208 190 356 240 58 19 82 21 220 18 142 -3
158 -5 208 -29 67 -33 60 -35 -109 -44 -148 -8 -244 -31 -337 -81 -188 -101
-282 -222 -348 -448 -34 -113 -6 -352 55 -481 5 -11 23 -56 40 -100 33 -82 35
-88 68 -165 11 -25 28 -69 37 -98 10 -29 21 -55 26 -58 5 -3 9 -18 9 -33 0
-15 3 -31 7 -35 14 -14 31 -140 32 -233 1 -133 -29 -272 -77 -347 -22 -36
-117 -136 -128 -136 -6 0 -6 0 39 75 62 101 77 161 77 299 0 119 -8 162 -47
253 -7 17 -13 36 -13 42 0 16 -93 179 -132 231 -58 77 -142 186 -148 190 -12
9 -102 180 -122 233 -68 177 -80 371 -31 532 18 62 65 165 76 165 4 0 7 5 7
11 0 26 101 139 175 196 46 35 203 113 229 113 9 0 26 4 36 10 39 21 182 33
283 23z m31 -228 c-4 -8 -10 -15 -16 -15 -14 0 -95 -64 -157 -123 -69 -66
-110 -132 -147 -232 -26 -73 -29 -92 -29 -205 0 -172 20 -264 89 -422 9 -20
16 -42 16 -50 0 -8 4 -18 9 -23 8 -10 58 -168 80 -255 29 -116 30 -329 2 -410
-4 -14 -17 -52 -27 -85 -19 -61 -44 -118 -44 -100 0 6 6 47 14 91 25 142 0
401 -50 519 -7 17 -22 57 -34 90 -13 33 -38 93 -56 133 -121 258 -135 309
-136 484 0 108 4 145 21 199 62 196 280 392 463 418 4 1 5 -6 2 -14z m-877
-112 c-8 -15 -27 -68 -43 -118 -25 -82 -27 -104 -28 -245 0 -147 15 -251 44
-310 60 -118 79 -153 113 -200 22 -30 61 -77 87 -105 104 -110 206 -279 263
-433 47 -127 54 -323 16 -427 -62 -169 -192 -297 -324 -319 l-40 -7 48 28 c66
39 152 126 178 182 66 140 65 329 -2 496 -37 90 -45 104 -162 267 -180 250
-234 344 -282 491 -78 239 -52 438 89 684 36 63 74 77 43 16z m-4577 -66 c31
-12 180 -108 220 -142 8 -7 35 -23 60 -36 25 -12 59 -33 77 -46 35 -25 242
-133 258 -133 26 -1 46 -28 39 -54 -3 -14 -10 -26 -16 -26 -10 0 -72 27 -166
72 -34 17 -65 28 -68 25 -6 -6 61 -47 161 -97 60 -30 70 -39 73 -64 2 -16 -1
-33 -6 -38 -10 -10 -166 89 -244 155 -27 22 -51 38 -54 35 -3 -3 16 -23 42
-44 26 -22 68 -57 95 -79 26 -22 73 -57 103 -78 52 -35 56 -41 56 -77 0 -46
-16 -52 -46 -18 -32 36 -307 268 -312 263 -3 -3 19 -28 49 -58 30 -29 74 -75
99 -102 25 -28 80 -83 122 -123 65 -62 99 -114 85 -128 -1 -2 -19 -1 -39 2
-26 5 -34 10 -31 23 3 15 -139 171 -207 226 -14 12 -43 36 -65 55 -48 42 -31
17 45 -65 30 -33 84 -93 120 -132 35 -40 70 -73 77 -73 7 0 13 -4 13 -10 0
-11 -90 -13 -106 -2 -6 4 -59 63 -119 132 -149 171 -233 252 -296 289 -48 27
-63 31 -134 31 -93 0 -144 -20 -240 -93 -71 -54 -199 -178 -273 -265 -54 -63
-122 -178 -122 -205 0 -9 -5 -39 -11 -67 -11 -52 -38 -86 -88 -111 -14 -8 -40
-24 -58 -37 -42 -31 -53 -90 -27 -148 10 -21 21 -46 25 -56 8 -17 4 -20 -116
-73 -33 -14 -68 -30 -77 -35 -44 -25 -46 -4 -14 135 29 125 46 229 46 293 0
38 7 78 16 98 9 18 89 104 177 191 250 245 374 380 468 513 72 102 108 138
142 145 18 4 37 11 42 15 11 9 113 27 160 28 17 1 46 -5 65 -11z m5413 -654
c-13 -79 -1 -219 25 -269 15 -31 42 -120 42 -141 0 -10 5 -24 10 -29 6 -6 17
-41 26 -80 57 -252 58 -370 6 -549 -72 -246 -290 -448 -547 -506 -65 -15 -225
-23 -225 -11 0 5 42 16 93 26 104 19 148 33 227 70 243 113 400 328 436 595 8
65 -10 64 -21 -2 -16 -92 -60 -197 -126 -297 -39 -59 -150 -169 -196 -194
-128 -69 -238 -111 -270 -103 -15 3 -13 6 10 15 90 37 147 74 218 140 125 117
200 237 243 387 9 33 21 74 26 90 30 96 19 282 -29 495 -24 108 -10 282 32
383 18 43 29 32 20 -20z m-5175 -629 c48 -25 146 -85 217 -132 72 -48 146 -95
165 -105 50 -27 168 -86 215 -107 83 -38 140 -62 162 -71 13 -5 23 -13 23 -19
0 -20 66 -117 145 -214 44 -54 91 -113 105 -130 35 -44 64 -73 149 -147 74
-65 104 -87 256 -193 47 -33 90 -65 95 -72 7 -7 8 -37 4 -78 -6 -62 -9 -66
-45 -90 -50 -34 -118 -125 -126 -168 -9 -59 29 -111 150 -203 46 -35 47 -37
47 -89 0 -43 6 -61 30 -94 17 -23 37 -42 45 -42 8 0 46 28 85 63 89 78 126 98
170 95 32 -3 35 -6 33 -32 -2 -26 -9 -42 -57 -133 -18 -34 -110 -116 -163
-145 -17 -10 -42 -18 -55 -18 -13 0 -29 -5 -35 -11 -7 -7 -47 -11 -99 -10
-104 0 -170 20 -236 72 -45 35 -104 97 -97 102 54 36 84 67 100 104 27 64 24
114 -11 176 -33 58 -69 84 -132 95 -41 7 -43 9 -51 52 -11 52 -59 130 -113
182 -45 42 -142 94 -154 82 -56 -62 -106 -251 -88 -334 8 -38 7 -46 -8 -55
-52 -31 -71 -57 -88 -118 -14 -51 -15 -72 -7 -103 16 -59 76 -116 144 -137 31
-10 57 -23 57 -29 0 -26 -55 -117 -94 -153 -86 -81 -187 -107 -306 -78 -36 8
-88 31 -117 49 -54 35 -113 99 -113 121 0 16 86 18 95 3 3 -5 19 -10 34 -10
16 0 34 -6 40 -14 15 -18 79 -28 102 -15 16 8 18 17 13 52 -4 23 -10 46 -15
51 -5 6 -9 21 -9 34 0 13 -5 32 -10 43 -9 15 -6 26 12 52 31 44 58 123 58 172
0 66 -57 114 -174 145 -55 14 -60 18 -70 53 -12 41 -55 92 -87 102 -17 6 -35
-7 -90 -61 l-68 -68 -15 35 c-8 19 -34 56 -56 84 -39 47 -42 53 -36 95 30 213
30 305 -1 381 -12 32 -28 46 -81 76 -35 20 -90 42 -120 49 -30 7 -59 17 -64
22 -5 5 0 34 13 72 22 64 23 156 1 183 -22 27 -31 112 -20 197 5 47 14 92 18
101 5 8 12 39 16 67 4 29 11 55 15 58 5 3 9 18 9 34 0 16 4 32 10 35 5 3 14
23 20 45 15 57 59 90 122 90 40 0 67 -9 136 -46z m-1073 -150 c16 -34 16 -37
-5 -77 -52 -100 -243 -269 -285 -253 -16 6 -25 63 -25 166 l0 85 58 18 c31 10
89 35 127 57 89 50 108 50 130 4z m3280 -644 c44 -53 85 -138 85 -177 0 -49
12 -57 63 -44 25 6 58 11 73 11 26 0 26 -1 22 -47 -5 -46 -37 -123 -94 -226
-29 -53 -43 -130 -25 -141 15 -9 78 13 116 40 32 24 192 104 207 104 13 0 10
-34 -7 -73 -20 -49 -19 -57 9 -57 37 0 115 -49 147 -93 26 -36 28 -43 16 -61
-21 -32 -96 -86 -128 -93 -42 -8 -53 -26 -40 -64 14 -39 14 -89 1 -89 -5 0
-24 13 -42 29 -18 15 -64 45 -101 65 -75 41 -90 42 -179 4 -40 -17 -48 -25
-54 -54 -9 -51 11 -144 46 -215 103 -203 354 -323 574 -274 42 9 78 20 81 26
4 5 13 9 22 9 48 0 166 101 263 224 28 36 55 66 58 66 4 0 15 -35 26 -78 43
-177 133 -306 256 -365 62 -31 70 -32 187 -31 67 0 132 5 145 11 13 6 44 20
70 32 26 12 78 52 116 89 61 60 69 73 79 125 12 58 6 98 -17 112 -19 12 -154
16 -198 7 -23 -6 -44 -6 -47 -2 -3 4 12 24 32 43 l36 36 -49 54 c-53 58 -79
118 -60 140 27 33 73 50 142 55 l72 4 6 49 c4 27 10 49 15 49 5 0 27 -21 50
-47 54 -61 54 -62 91 -122 24 -38 38 -51 56 -51 32 0 42 23 42 101 -1 128 39
184 171 246 68 31 171 53 171 37 0 -3 -24 -33 -54 -65 -56 -60 -139 -188 -192
-293 -16 -32 -36 -60 -44 -63 -73 -23 -130 -60 -130 -85 0 -6 -9 -23 -20 -39
-16 -22 -19 -33 -10 -48 5 -11 10 -31 10 -45 0 -14 5 -36 11 -50 21 -46 -13
-117 -99 -205 -43 -43 -90 -85 -107 -94 -59 -31 -100 -48 -137 -57 -21 -6 -55
-14 -75 -19 -38 -10 -145 -2 -231 17 -124 27 -245 128 -305 253 -21 42 -37 81
-37 88 0 20 -11 12 -80 -52 -77 -73 -195 -137 -284 -155 -78 -16 -206 -15
-284 2 -233 50 -444 271 -467 489 -4 37 -11 67 -15 67 -4 0 -15 -35 -25 -77
-34 -148 -136 -298 -260 -383 -104 -72 -152 -89 -278 -102 -127 -13 -219 -4
-294 28 -21 9 -49 22 -63 28 -43 19 -134 87 -171 130 -32 35 -38 39 -53 27 -9
-7 -16 -19 -16 -25 0 -19 -53 -114 -89 -159 -43 -52 -122 -119 -153 -128 -178
-54 -285 -63 -378 -35 -152 47 -277 138 -327 238 -43 88 -47 115 -24 160 13
27 18 53 16 91 l-4 54 52 27 c61 33 120 76 114 83 -7 6 -87 -22 -152 -53 l-53
-25 -33 20 c-19 10 -48 22 -65 26 -28 5 -37 17 -73 91 -48 99 -135 233 -186
286 -45 47 -45 62 -3 53 85 -17 194 -69 244 -116 34 -32 50 -84 60 -192 5 -47
12 -71 22 -74 18 -7 44 7 57 33 12 23 48 77 55 84 3 3 22 26 43 53 56 69 67
63 80 -42 2 -11 19 -15 74 -15 53 -1 76 -6 90 -19 11 -9 25 -17 31 -17 15 0
15 -40 1 -76 -5 -16 -31 -47 -56 -70 l-46 -42 41 -48 c28 -34 37 -51 29 -56
-6 -4 -16 -3 -21 2 -6 6 -53 10 -107 10 -82 0 -100 -3 -123 -21 -22 -17 -26
-28 -26 -70 0 -53 8 -72 58 -136 32 -42 165 -133 193 -133 8 0 20 -5 26 -11 5
-5 59 -13 119 -16 93 -5 117 -2 166 15 158 56 259 176 309 370 12 42 23 79 25
82 3 2 17 -11 32 -30 138 -178 211 -233 372 -281 59 -18 201 -17 271 2 178 49
336 222 368 402 14 79 6 94 -66 140 -71 44 -115 35 -235 -47 -40 -27 -69 -42
-73 -36 -4 6 -5 36 -3 68 l3 57 -50 15 c-55 17 -125 76 -125 107 0 33 88 112
133 120 l39 6 -7 68 c-9 86 -5 87 120 19 206 -112 195 -107 210 -87 18 24 5
75 -34 136 -54 84 -79 146 -87 211 l-7 63 39 -6 c21 -3 55 -9 74 -12 34 -7 35
-5 48 34 6 22 12 45 12 51 0 30 123 194 141 188 4 -2 24 -23 44 -48z m-2420
-205 c49 -38 59 -70 51 -173 -14 -198 -21 -216 -77 -188 -18 9 -38 16 -45 16
-18 0 -107 48 -116 63 -4 6 5 32 19 57 29 49 62 115 99 198 12 28 26 52 29 52
4 0 21 -11 40 -25z m1153 -479 c23 -25 44 -57 47 -73 4 -15 8 -36 10 -46 4
-19 -40 -127 -51 -127 -17 0 -72 42 -94 72 -19 25 -25 45 -24 83 1 45 17 126
30 147 8 13 36 -6 82 -56z m2523 12 c7 -24 13 -72 13 -107 l-1 -65 -48 -43
c-27 -24 -56 -43 -65 -43 -19 0 -50 84 -50 137 0 42 14 68 69 126 47 49 67 48
82 -5z m-2302 -254 c26 -21 31 -33 31 -68 0 -76 -77 -116 -142 -73 -43 29 -50
79 -17 121 40 51 84 58 128 20z m2091 9 c33 -19 55 -85 39 -114 -11 -21 -64
-49 -94 -49 -55 0 -104 78 -81 129 11 24 56 50 89 51 11 0 32 -8 47 -17z
m-2403 -55 c49 -21 63 -39 63 -79 0 -31 -6 -42 -33 -63 -43 -33 -77 -33 -117
1 -29 24 -32 31 -27 67 4 29 14 48 34 63 32 26 42 27 80 11z m2700 -10 c32
-30 32 -90 -2 -123 -55 -56 -155 -18 -155 60 0 75 101 115 157 63z m901 -180
c7 -7 12 -31 12 -54 0 -36 -5 -46 -31 -65 -40 -28 -63 -16 -67 36 -3 30 2 43
24 66 30 32 44 35 62 17z m-4524 -19 c30 -23 34 -63 11 -96 -13 -19 -19 -21
-46 -11 -21 7 -36 22 -46 45 -12 31 -12 38 2 59 19 29 44 31 79 3z m2302 -183
c29 -39 75 -90 103 -114 28 -24 51 -46 51 -50 0 -4 -101 -7 -225 -7 -152 0
-225 3 -225 11 0 5 23 30 50 53 28 24 72 73 97 110 73 103 76 106 88 86 5 -10
33 -50 61 -89z m-1087 -161 c44 -30 77 -56 73 -59 -4 -2 -34 -7 -67 -11 -33
-4 -73 -10 -90 -15 -16 -5 -54 -10 -82 -13 l-53 -4 34 38 c19 20 45 56 58 78
13 23 28 41 35 41 7 0 48 -25 92 -55z m2169 -25 c28 -41 50 -76 49 -76 -1 -1
-27 2 -57 7 -30 5 -88 14 -128 19 -40 5 -78 13 -84 16 -5 3 12 19 39 35 26 15
62 39 78 53 17 14 35 25 41 23 7 -1 35 -36 62 -77z m-823 -80 c231 -10 452
-25 545 -39 36 -6 101 -15 145 -22 136 -20 177 -27 265 -44 47 -9 114 -20 150
-26 36 -5 81 -13 100 -19 19 -5 81 -21 138 -35 272 -69 335 -103 297 -161 -19
-29 -48 -31 -102 -4 -23 11 -63 25 -90 31 -26 6 -57 15 -68 20 -11 4 -33 10
-50 13 -16 3 -61 12 -100 21 -38 9 -92 20 -120 25 -27 5 -90 16 -140 25 -88
16 -126 22 -290 45 -88 12 -114 14 -290 29 -431 38 -710 46 -1005 31 -414 -21
-730 -46 -776 -60 -17 -6 -66 -15 -110 -21 -147 -21 -156 -23 -404 -74 -36 -7
-81 -18 -100 -24 -19 -5 -55 -15 -80 -21 -25 -6 -52 -15 -60 -19 -8 -4 -41
-16 -74 -26 -62 -20 -88 -14 -94 20 -8 40 26 71 98 90 14 3 34 10 45 15 23 10
69 23 180 51 44 11 96 24 115 29 19 5 58 12 85 15 28 4 65 11 82 17 18 5 59
13 90 18 32 5 103 16 158 25 100 16 140 21 420 51 262 28 689 38 1040 24z
m1675 -38 c0 -8 -48 -113 -55 -120 -5 -5 -125 32 -125 38 0 3 24 14 53 24 28
10 66 29 82 42 31 25 45 30 45 16z m-3926 -42 c32 -17 67 -30 77 -30 37 0 18
-16 -39 -33 -32 -9 -61 -17 -64 -17 -5 0 -48 92 -48 104 0 11 15 6 74 -24z
m2411 -135 c116 -8 246 -19 290 -24 198 -23 469 -61 540 -76 300 -63 310 -66
463 -113 45 -14 82 -29 82 -33 0 -12 -111 -62 -198 -89 -40 -12 -75 -27 -78
-32 -5 -8 20 -46 67 -103 54 -64 119 -149 119 -155 0 -4 -6 -13 -14 -19 -11
-9 -24 -8 -58 7 -66 29 -142 48 -348 85 -708 130 -1811 140 -2595 23 -186 -28
-401 -73 -450 -95 -11 -5 -41 -16 -67 -24 -40 -13 -47 -13 -52 -1 -3 7 3 18
14 24 19 10 161 188 187 233 13 23 2 47 -22 47 -15 0 -104 26 -155 45 -117 44
-125 54 -57 74 23 7 52 17 65 22 13 5 31 9 40 9 9 0 30 7 46 15 15 8 36 15 46
15 10 0 47 7 82 16 86 22 384 75 528 94 41 5 107 14 145 19 176 25 234 31 430
41 116 6 217 13 225 15 33 8 528 -6 725 -20z m-2275 -391 c22 -9 40 -20 40
-25 0 -13 -63 -99 -72 -99 -21 0 -88 42 -88 55 0 26 42 85 61 85 10 0 37 -7
59 -16z m3667 -32 c14 -24 22 -46 19 -49 -3 -4 -24 -14 -47 -25 l-41 -18 -30
32 c-49 53 -53 67 -21 78 15 6 37 14 48 20 33 15 47 7 72 -38z m-1327 -131
c328 -24 505 -43 635 -65 50 -9 115 -19 145 -22 30 -4 60 -10 65 -14 6 -5 28
-11 50 -15 42 -6 71 -13 170 -41 159 -44 208 -75 203 -129 -4 -37 -33 -44 -83
-21 -18 9 -37 16 -42 16 -5 0 -39 10 -74 22 -35 11 -82 24 -104 28 -22 4 -76
17 -119 29 -44 11 -94 21 -112 21 -18 0 -45 5 -60 10 -15 6 -68 15 -118 20
-50 5 -136 13 -191 19 -375 39 -754 55 -1060 46 -385 -11 -821 -37 -910 -55
-27 -5 -83 -12 -123 -15 -41 -3 -82 -10 -92 -15 -10 -6 -35 -10 -54 -10 -20 0
-69 -9 -109 -21 -39 -11 -101 -27 -137 -34 -80 -16 -125 -32 -198 -68 -33 -16
-56 2 -60 45 -3 33 0 37 40 56 24 11 61 26 83 32 22 7 48 17 58 22 10 5 39 13
65 19 26 6 65 14 87 19 77 16 211 40 309 55 54 9 102 18 107 21 11 6 136 17
529 44 302 20 825 21 1100 1z m-165 -211 c175 -9 524 -37 584 -46 57 -9 21
-24 -80 -34 -52 -6 -128 -14 -169 -20 -41 -5 -128 -12 -192 -16 -69 -4 -118
-11 -118 -17 0 -11 319 -2 495 14 55 5 150 13 210 19 106 10 215 5 215 -9 0
-9 -83 -31 -119 -31 -15 0 -41 -4 -57 -10 -16 -5 -67 -14 -114 -20 -47 -5
-134 -17 -195 -25 -60 -9 -170 -20 -243 -25 -73 -5 -140 -14 -150 -20 -36 -22
485 4 728 36 63 9 160 20 215 25 55 5 106 11 114 14 19 7 101 -5 101 -15 0 -4
-15 -10 -32 -13 -18 -3 -76 -15 -128 -27 -403 -88 -833 -122 -1506 -121 -236
0 -742 17 -766 26 -7 2 -60 9 -118 15 -185 18 -322 37 -425 59 -241 51 -255
55 -255 68 0 16 42 27 78 20 298 -57 605 -85 1007 -94 253 -5 307 4 108 18
-374 27 -780 76 -888 108 l-30 8 28 12 c35 13 120 14 207 1 200 -30 829 -56
806 -32 -4 4 -92 12 -194 19 -161 10 -336 27 -499 49 -68 10 -50 20 45 28 48
4 134 11 192 16 58 5 148 10 200 10 52 1 104 5 115 10 27 12 620 12 830 0z"/>
<path d="M4087 9174 c-9 -9 19 -157 45 -243 5 -18 12 -47 15 -65 8 -53 34
-136 43 -136 14 0 38 84 29 105 -4 11 -8 36 -8 55 -1 44 -31 131 -77 221 -36
72 -37 73 -47 63z"/>
<path d="M3990 8410 c-43 -50 -55 -58 -70 -50 -11 6 -66 13 -123 16 l-104 7
-27 -36 c-15 -20 -33 -57 -41 -84 -7 -26 -16 -56 -20 -67 -8 -17 -7 -18 16 -2
23 14 30 14 81 0 74 -21 121 -13 159 29 37 40 39 64 4 41 -14 -9 -25 -12 -25
-7 0 15 35 43 53 43 14 0 64 46 151 139 22 23 25 31 14 31 -9 0 -39 -27 -68
-60z"/>
<path d="M5012 8338 c38 -49 59 -79 105 -152 51 -80 117 -223 132 -284 24 -96
39 -158 40 -172 0 -8 8 -76 17 -149 14 -114 15 -153 5 -250 -14 -141 -26 -224
-53 -361 -18 -97 -28 -138 -58 -245 -14 -51 -169 -484 -181 -507 -5 -9 -11
-36 -14 -60 l-6 -43 22 55 c11 30 27 69 34 85 7 17 21 53 30 80 10 28 22 55
25 60 4 6 11 21 15 35 4 14 16 43 26 65 28 63 49 116 65 165 8 25 19 54 23 65
124 294 165 809 85 1066 -8 26 -14 53 -14 62 0 8 -13 48 -30 88 -16 41 -30 80
-30 87 0 8 -10 28 -22 45 -13 18 -31 48 -42 67 -42 78 -175 240 -199 240 -5 0
6 -19 25 -42z"/>
<path d="M3550 8188 c-14 -13 -36 -37 -49 -54 -28 -33 -255 -279 -313 -338
-21 -21 -38 -46 -38 -55 0 -17 302 285 367 367 20 26 43 52 51 59 8 6 12 19
10 28 -3 15 -7 14 -28 -7z"/>
<path d="M3742 7998 c-108 -107 -134 -150 -69 -109 29 17 137 135 174 189 36
52 0 25 -105 -80z"/>
<path d="M4473 8050 c0 -25 2 -35 4 -22 2 12 2 32 0 45 -2 12 -4 2 -4 -23z"/>
<path d="M4416 7984 c-12 -102 -69 -193 -172 -271 -28 -22 -29 -22 -4 -16 101
24 208 178 203 292 -3 59 -20 56 -27 -5z"/>
<path d="M4515 7560 c-38 -39 -78 -73 -87 -76 -22 -6 -24 -24 -4 -24 17 0 127
99 157 141 35 50 6 32 -66 -41z"/>
<path d="M2947 7562 c-41 -42 -44 -53 -22 -72 9 -7 15 -29 15 -54 0 -44 27
-86 55 -86 30 0 77 54 85 99 13 74 -13 134 -65 145 -26 6 -36 1 -68 -32z"/>
<path d="M3673 7576 c-13 -6 -23 -14 -23 -19 0 -4 14 -1 30 8 17 9 30 18 30
20 0 7 -12 4 -37 -9z"/>
<path d="M4515 7468 c-22 -24 -59 -60 -83 -80 -46 -42 -50 -48 -25 -48 17 0
163 144 163 161 0 18 -16 8 -55 -33z"/>
<path d="M5121 6737 c-6 -16 -11 -34 -11 -42 0 -8 -4 -17 -10 -20 -5 -3 -10
-14 -10 -23 0 -9 -7 -30 -15 -46 -18 -35 -20 -55 -3 -38 11 11 34 66 44 107 3
11 10 30 16 42 6 11 8 27 5 35 -3 8 -9 2 -16 -15z"/>
<path d="M5031 6499 c-12 -23 -19 -44 -17 -47 3 -2 14 15 25 39 12 23 19 44
17 47 -3 2 -14 -15 -25 -39z"/>
<path d="M5167 6158 c-37 -91 -38 -95 -57 -193 -10 -49 -20 -96 -22 -104 -1
-8 5 -17 15 -19 13 -3 17 3 17 25 0 15 9 60 21 98 39 130 67 255 57 255 -3 0
-16 -28 -31 -62z"/>
<path d="M4140 5965 c-76 -16 -141 -36 -155 -46 -5 -4 -27 -10 -47 -14 -21 -4
-42 -13 -49 -21 -6 -8 -18 -14 -25 -14 -22 0 -145 -78 -187 -119 -40 -37 -97
-128 -97 -152 0 -8 19 8 42 35 93 108 212 193 353 251 22 9 49 21 60 26 11 5
74 22 140 38 97 24 111 29 75 29 -25 0 -74 -6 -110 -13z"/>
<path d="M5090 5626 c0 -192 76 -400 216 -598 68 -95 194 -224 267 -273 62
-42 76 -37 21 8 -72 58 -156 141 -204 202 -99 126 -215 359 -240 486 -6 30
-15 68 -20 84 -5 17 -12 65 -15 108 -4 42 -11 77 -16 77 -5 0 -9 -42 -9 -94z"/>
<path d="M2333 5152 c-40 -44 -107 -82 -145 -82 -16 0 -35 -36 -25 -46 3 -3
20 4 38 15 19 12 40 21 47 21 47 0 142 85 142 127 0 22 -13 14 -57 -35z"/>
<path d="M2735 5050 c20 -22 207 -150 219 -150 4 0 30 -15 59 -33 154 -98 407
-187 541 -190 42 -2 73 4 99 17 47 23 36 45 -14 27 -17 -6 -47 -11 -65 -11
-31 0 -258 61 -299 80 -11 5 -45 19 -75 31 -68 25 -230 106 -287 142 -24 15
-45 27 -48 27 -2 0 -34 18 -70 40 -73 45 -86 49 -60 20z"/>
<path d="M2115 4888 c-61 -133 -149 -568 -116 -568 6 0 11 20 11 46 0 25 5 55
12 67 6 12 15 38 19 57 4 19 13 53 19 75 6 22 17 67 25 100 7 33 22 92 33 130
24 84 35 145 27 145 -3 0 -17 -24 -30 -52z"/>
<path d="M6384 4198 c103 -104 193 -245 226 -353 7 -22 16 -49 21 -60 21 -55
30 -96 36 -162 9 -114 27 -78 20 40 -8 127 -33 206 -111 352 -40 74 -222 255
-257 255 -4 0 26 -33 65 -72z"/>
<path d="M2285 5964 c-21 -9 -61 -13 -129 -12 -67 1 -101 -2 -103 -9 -6 -17
58 -28 154 -28 80 0 84 1 115 33 28 27 30 32 13 31 -11 0 -33 -7 -50 -15z"/>
<path d="M1810 5740 c-54 -50 -121 -116 -149 -148 -74 -85 -151 -203 -151
-232 0 -24 1 -24 20 8 12 19 25 39 30 45 22 28 114 134 134 153 45 45 221 237
229 250 20 35 -21 7 -113 -76z"/>
<path d="M4695 3826 c-4 -30 -8 -114 -9 -187 l-1 -132 -50 -27 c-37 -19 -56
-38 -73 -71 l-22 -44 -134 -5 c-74 -3 -138 -8 -142 -12 -17 -17 14 -23 138
-28 140 -5 141 -6 152 -62 9 -40 51 -84 108 -111 l51 -25 49 25 c55 28 98 77
113 129 l11 36 134 5 c125 5 164 12 147 30 -4 3 -70 9 -146 11 l-139 5 -17 38
c-22 47 -53 78 -91 88 -32 8 -29 -9 -49 279 -4 61 -12 112 -16 112 -4 0 -11
-24 -14 -54z m80 -438 c23 -27 26 -39 22 -72 -7 -49 -36 -76 -84 -76 -48 0
-70 14 -83 55 -14 42 -6 70 28 102 37 34 83 31 117 -9z"/>
<path d="M6640 3064 c0 -16 130 -124 149 -124 5 0 13 5 16 11 11 17 -35 59
-95 86 -30 14 -58 27 -62 30 -5 2 -8 1 -8 -3z"/>
<path d="M4650 2214 c-30 -20 -64 -39 -76 -44 -12 -5 -46 -25 -77 -44 -31 -20
-59 -36 -63 -36 -15 0 -74 -52 -74 -64 0 -22 81 -71 313 -188 l38 -19 155 80
c237 124 235 122 152 175 -50 31 -85 51 -225 127 -32 18 -62 36 -67 40 -14 13
-15 12 -76 -27z m100 -98 c39 -26 123 -66 139 -66 28 0 5 -29 -41 -52 -29 -15
-70 -37 -91 -50 l-38 -23 -104 54 c-58 29 -103 57 -100 61 3 4 17 11 31 14 14
4 54 25 88 46 33 22 66 40 71 40 6 0 26 -11 45 -24z"/>
<path d="M3730 2128 c-36 -5 -103 -17 -149 -26 -82 -17 -85 -18 -113 -62 -24
-37 -28 -53 -25 -91 5 -57 38 -106 86 -126 39 -17 120 -13 269 13 137 23 171
60 164 182 -2 24 -14 44 -47 77 -49 50 -57 51 -185 33z m140 -110 c13 -25 13
-31 0 -55 -14 -26 -24 -29 -104 -40 -48 -6 -115 -13 -149 -15 -59 -3 -62 -2
-75 26 -11 21 -11 34 -4 51 12 25 49 36 187 54 106 13 127 10 145 -21z"/>
<path d="M5575 2132 c-106 -37 -148 -145 -87 -225 33 -44 60 -57 137 -68 33
-4 94 -13 135 -19 96 -14 128 -7 176 34 38 33 39 36 39 98 0 114 -46 148 -225
168 -58 6 -116 13 -130 15 -14 2 -34 1 -45 -3z m175 -103 c52 -6 105 -17 118
-25 32 -21 30 -68 -4 -90 -24 -16 -33 -16 -155 4 -72 11 -137 26 -145 33 -19
16 -18 58 3 82 14 14 26 17 53 13 19 -3 78 -11 130 -17z"/>
<path d="M4116 2064 c-34 -35 -34 -76 0 -103 50 -39 108 -16 120 46 5 26 1 37
-19 57 -33 33 -67 33 -101 0z"/>
<path d="M5203 2078 c-29 -37 -34 -57 -19 -92 24 -57 87 -61 126 -6 17 25 19
33 9 52 -25 50 -92 76 -116 46z"/>
<path d="M3216 1944 c-43 -42 -40 -76 6 -108 33 -23 64 -19 87 10 27 35 26 59
-4 89 -28 29 -66 32 -89 9z"/>
<path d="M6111 1933 c-22 -27 -21 -49 5 -90 31 -49 108 -12 108 52 0 66 -73
90 -113 38z"/>

</g>
</svg>